<?xml version="1.0" encoding="utf-8"?>
<!-- Generator: Adobe Illustrator 18.0.0, SVG Export Plug-In . SVG Version: 6.00 Build 0)  -->
<!DOCTYPE svg PUBLIC "-//W3C//DTD SVG 1.1//EN" "http://www.w3.org/Graphics/SVG/1.1/DTD/svg11.dtd">
<svg version="1.1" id="Layer_1" xmlns="http://www.w3.org/2000/svg" xmlns:xlink="http://www.w3.org/1999/xlink" x="0px" y="0px"
	 viewBox="0 0 1318.1 323" enable-background="new 0 0 1318.1 323" xml:space="preserve">
<g>
	<path fill="#FFFFFF" d="M423.8,135.3c-3.9,0-7,0.9-9.2,2.8c-2.2,1.8-3.4,4.3-3.4,7.3c0,3,1.4,5.5,4.1,7.3c2.7,1.8,9.1,3.9,19,6.4
		c9.9,2.4,17.6,6.1,23.1,11c5.5,4.9,8.2,12,8.2,21.4c0,9.4-3.5,17-10.6,22.8c-7,5.8-16.3,8.8-27.8,8.8c-16.6,0-31.5-6.1-44.8-18.4
		l13.9-17.1c11.3,9.9,21.7,14.8,31.3,14.8c4.3,0,7.7-0.9,10.1-2.8c2.4-1.8,3.7-4.3,3.7-7.5c0-3.1-1.3-5.6-3.9-7.5
		c-2.6-1.8-7.7-3.7-15.4-5.6c-12.2-2.9-21.1-6.7-26.7-11.3c-5.6-4.6-8.5-11.9-8.5-21.9c0-9.9,3.6-17.6,10.7-23
		c7.1-5.4,16.1-8.1,26.7-8.1c7,0,14,1.2,21,3.6c7,2.4,13.1,5.8,18.3,10.2l-11.8,17.1C442.8,138.7,433.5,135.3,423.8,135.3
		L423.8,135.3z M530.3,139.9c9.4,0,17.7,3.9,25.1,11.8c7.3,7.8,11,17.7,11,29.6c0,11.9-3.7,21.8-11,29.8c-7.3,8-15.9,12-25.8,12
		c-9.8,0-17.8-3.9-23.7-11.8v39.7h-22.5V141.3h22.5v9C512.7,143.4,520.9,139.9,530.3,139.9L530.3,139.9z M505.6,181.6
		c0,6.5,1.8,11.9,5.5,16c3.6,4.1,8.1,6.2,13.3,6.2c5.2,0,9.7-2.1,13.6-6.2c3.9-4.1,5.8-9.5,5.8-16c0-6.5-1.9-11.9-5.7-16.3
		c-3.8-4.4-8.3-6.6-13.6-6.6c-5.3,0-9.8,2.2-13.4,6.5C507.4,169.7,505.6,175.1,505.6,181.6L505.6,181.6z M652.9,210.2
		c-9.1,8.6-19.7,12.9-32,12.9c-12.2,0-22.3-3.8-30.3-11.3c-8-7.5-12-17.7-12-30.3c0-12.7,4.1-22.8,12.2-30.3
		c8.1-7.5,17.7-11.2,28.8-11.2c11.1,0,20.5,3.3,28.2,10c7.7,6.7,11.6,15.9,11.6,27.6v12h-58.7c0.7,4.4,3,8,6.9,10.8
		c3.9,2.8,8.3,4.2,13.2,4.2c7.9,0,14.4-2.6,19.5-7.9L652.9,210.2L652.9,210.2z M636.8,173.5c-0.5-4.8-2.3-8.5-5.4-11.1
		c-3.1-2.6-6.9-3.9-11.3-3.9c-4.4,0-8.5,1.3-12.2,4c-3.7,2.7-5.8,6.3-6.4,10.9H636.8L636.8,173.5z M714.4,203.1
		c7.5,0,14.2-3.7,20.2-11.2l13.3,15c-10.4,10.8-21.6,16.2-33.7,16.2c-12.1,0-22.3-3.8-30.6-11.5c-8.3-7.6-12.5-17.6-12.5-30
		c0-12.3,4.2-22.4,12.7-30.1c8.4-7.7,18.4-11.6,30-11.6c5.8,0,11.7,1.2,17.6,3.6c5.9,2.4,11.2,5.9,15.7,10.6l-11.7,15.3
		c-2.6-3.1-5.8-5.5-9.5-7.2c-3.7-1.7-7.5-2.5-11.2-2.5c-5.9,0-11,1.9-15.2,5.8c-4.2,3.8-6.4,9.2-6.4,16c0,6.8,2.1,12.2,6.4,16
		C703.7,201.2,708.7,203.1,714.4,203.1L714.4,203.1z M789.7,157.5v36.1c0,3.1,0.8,5.5,2.4,7.3c1.6,1.7,3.5,2.6,5.7,2.6
		c4.2,0,7.7-1.9,10.6-5.7l8.4,15.7c-7,6.4-14.4,9.6-22.1,9.6c-7.7,0-14.3-2.5-19.6-7.6c-5.3-5.1-8-12-8-20.8v-37.1h-9.4v-16.2h9.4
		v-24.1h22.6v24.1h19.5v16.2H789.7L789.7,157.5z M871.2,161c-6.7,0-11.7,2.4-15,7.1c-3.3,4.7-4.9,11-4.9,18.8v34.9h-22.5v-80.6h22.5
		v10.6c2.9-3.3,6.5-6.1,10.9-8.4c4.3-2.3,8.8-3.5,13.3-3.6l0.2,21.1H871.2L871.2,161z M908.3,181.6c0,6.6,1.9,12,5.6,16.1
		c3.7,4.1,8.5,6.2,14.4,6.2c5.8,0,10.6-2.1,14.4-6.2c3.7-4.1,5.6-9.5,5.6-16.1c0-6.6-1.9-12-5.6-16.2c-3.7-4.2-8.5-6.3-14.4-6.3
		c-5.8,0-10.6,2.1-14.4,6.3C910.2,169.6,908.3,175,908.3,181.6L908.3,181.6z M970.9,181.6c0,11.7-4,21.5-12.1,29.5
		c-8.1,8-18.2,12-30.5,12c-12.2,0-22.4-4-30.5-12c-8.1-8-12.1-17.8-12.1-29.5c0-11.7,4-21.5,12.1-29.6c8.1-8,18.2-12.1,30.5-12.1
		c12.2,0,22.4,4,30.5,12.1C966.9,160,970.9,169.9,970.9,181.6L970.9,181.6z"/>
	<path fill="#F7B033" d="M1041.4,201.2c11.5,0,20.9-4.5,28.2-13.6l15,15.4c-11.9,13.4-25.9,20.1-42,20.1c-16.1,0-29.4-5.1-39.8-15.3
		c-10.4-10.2-15.7-23-15.7-38.6c0-15.5,5.3-28.5,16-38.9c10.6-10.4,23.6-15.6,39-15.6c17.2,0,31.6,6.5,43.1,19.6l-14.5,16.5
		c-7.4-9.2-16.6-13.8-27.6-13.8c-8.8,0-16.3,2.9-22.5,8.6c-6.2,5.7-9.4,13.5-9.4,23.2c0,9.7,2.9,17.6,8.8,23.4
		C1025.8,198.2,1033,201.2,1041.4,201.2L1041.4,201.2z M1118.7,181.6c0,6.6,1.9,12,5.6,16.1c3.7,4.1,8.5,6.2,14.4,6.2
		c5.8,0,10.6-2.1,14.4-6.2c3.7-4.1,5.6-9.5,5.6-16.1c0-6.6-1.9-12-5.6-16.2c-3.7-4.2-8.5-6.3-14.4-6.3c-5.8,0-10.6,2.1-14.4,6.3
		C1120.5,169.6,1118.7,175,1118.7,181.6L1118.7,181.6z M1181.3,181.6c0,11.7-4,21.5-12.1,29.5c-8.1,8-18.2,12-30.5,12
		c-12.2,0-22.4-4-30.5-12c-8.1-8-12.1-17.8-12.1-29.5c0-11.7,4-21.5,12.1-29.6c8.1-8,18.2-12.1,30.5-12.1c12.2,0,22.4,4,30.5,12.1
		C1177.2,160,1181.3,169.9,1181.3,181.6L1181.3,181.6z M1220.4,221.9h-22.5v-80.6h22.5V221.9L1220.4,221.9z M1199.8,131
		c-2.5-2.5-3.8-5.7-3.8-9.4c0-3.7,1.3-6.8,3.8-9.4c2.5-2.5,5.7-3.8,9.4-3.8c3.7,0,6.8,1.3,9.4,3.8c2.5,2.5,3.8,5.7,3.8,9.4
		c0,3.7-1.3,6.8-3.8,9.4c-2.5,2.5-5.7,3.8-9.4,3.8C1205.4,134.8,1202.3,133.6,1199.8,131L1199.8,131z M1264.1,176.9v44.9h-22.5
		v-80.6h22.5v9c6.8-6.9,14.4-10.3,22.9-10.3c8.5,0,15.6,3,21.3,9c5.7,6,8.6,14,8.6,24v49h-22.5v-45.5c0-12.4-4.5-18.6-13.6-18.6
		c-4.5,0-8.4,1.6-11.8,4.9C1265.8,165.9,1264.1,170.6,1264.1,176.9L1264.1,176.9z"/>
	<path fill="#FCB233" d="M33.2,201.5c2.6,12,7,23.4,13.1,33.9c15.1,26.1,40.1,46.4,71.5,54.8l0.2,0c16.2,4.3,32.5,5,48.1,2.7
		c1.1,0.9,2.3,1.8,3.4,2.7c7.3,5.4,15.5,9.4,24.3,11.7c4.6,1.2,9.2,2,13.9,2.3c-29.5,13.2-63.6,16.7-97.2,7.7l-1.2-0.3l0,0
		C71,306.4,40.5,281.4,22,249.4c-11.6-20.1-18.4-42.8-19.4-66.5c3.4,3.7,7.2,7.1,11.4,9.9C19.9,196.8,26.4,199.7,33.2,201.5
		L33.2,201.5z M265.2,189.5c0.9-8.1,1-16.1,0.2-23.9c9.5-2.6,18.5-6.4,26.9-11.3c3,19.4,2.1,39.7-3.3,59.9l-0.3,1.2l0,0
		c-1.7,6-3.7,11.7-6,17.3L265.2,189.5L265.2,189.5z M220.5,83.6c-10.5-8.2-22.5-14.7-35.8-19c7.6-6.7,14.2-14.3,19.7-22.6
		c19.8,8.2,36.9,20.5,50.8,35.5L220.5,83.6L220.5,83.6z"/>
	<path fill-rule="evenodd" clip-rule="evenodd" fill="#FFFFFF" d="M74.8,69.5l50.9-9l0,0c14.4-2.6,27.3-8.9,37.9-17.8
		c6.9-5.8,12.8-12.8,17.6-20.7L68.6,41.7c-5.2,1.4-10,4.2-13.9,8.1c-3.9,3.8-6.8,8.7-8.3,14.3c-1.9,7.2-1.2,14.5,1.5,20.9
		c2.8,6.5,7.8,12,14.2,15.4c2.5,1.3,10.3,3.4,18.5,5.4c9.4,2.2,19,3.9,22.3,4c6.7,0.1,13.1-2,18.5-5.6c5.2-3.6,9.3-8.6,11.6-14.8
		l1.4-5.1l1.6-5.9l6-0.4c2.5-0.2,5.2-0.2,7.9-0.2c2.7,0,5.4,0.2,8,0.5c2.6,0.3,5.3,0.6,8,1.1c2.7,0.5,5.4,1.1,7.9,1.8
		c13.5,3.6,25.6,9.8,35.9,18L319.2,80l14.5-2.5l-5.2,13.8c-5.5,14.8-14.1,27.7-25.1,38c-11,10.4-24.2,18.2-39.1,22.6h0l-0.8,0.2
		l-4.7-16.2l0.8-0.2l0,0c12.3-3.7,23.3-10.1,32.3-18.7c5.4-5.1,10.2-11.1,14.1-17.6l-81.4,14.3c0.7,0.8,1.3,1.6,1.9,2.4
		c13,16.8,20.5,37.7,20.5,59.7l0,4.8l26.2,64.5l2.1,5.2l-4,4l-36.8,36.8l-1.4,1.4l-1.9,0.6c-5.4,1.8-11.1,2.9-16.9,3.1
		c-5.7,0.2-11.4-0.4-17.1-2c-7.3-2-14-5.2-19.7-9.5c-4.3-3.2-8.2-7-11.4-11.2c-6.1,1.1-12.4,1.7-18.8,1.6
		c-8.2-0.1-16.4-1.2-24.6-3.4c-21.1-5.6-38.7-17.7-51.4-33.5c-11.1-13.9-18.4-30.6-20.9-48.5c-3.5,0.1-6.9-0.1-10.3-0.7
		c-6.6-1.2-12.8-3.7-18.5-7.6c-8.5-5.7-14.9-13.9-18.4-23.4c-3.4-9.2-4.2-19.5-1.4-29.6l0-0.1l1.1-3.8l2.3-8l8,2.1l117.8,31.6
		c13.1,3.5,23.8,8.4,32.2,14.7c8.8,6.6,15.1,14.8,19.1,24.7l20.6,50.7c5.9,0.5,10.8,1.6,14.9,3.1c5.7,2.1,9.9,4.9,13.4,8L219.6,264
		c-2-1.8-4.4-3.4-7.7-4.6c-3.7-1.4-8.6-2.2-15.2-2.4l-5.5-0.2l-2.1-5.1l-19.3-47.6c-2.1,1.6-4.4,3-6.8,4.2
		c-6.8,3.2-14.7,4.1-22.5,2.3h-0.1l-1.1-0.3c-9.3-2.5-16.8-8.5-21.2-16.3c-4.3-7.4-5.9-16.4-3.8-25.4v-0.1l0.3-1.1
		c0.3-1.2,0.7-2.5,1.2-3.6l-98.6-26.4c-0.6,5.2,0,10.3,1.8,15c2.3,6.1,6.5,11.5,12,15.3c3.8,2.5,7.9,4.2,12.1,5
		c1.9,0.3,3.8,0.5,5.8,0.5l0.5,0c0.1-2.3,0.6-7.3,0.8-9.6l10,2.6l0.1,0l6.3,1.7l-0.1,2.8c-0.4,10,0.2,18.2,3.1,28.2
		c3,10.5,8.1,20.3,15,28.8c10.5,13.1,25.2,23.1,42.6,27.8c6.9,1.8,13.7,2.8,20.4,2.8c6.9,0.1,13.8-0.7,20.4-2.4l5.9-1.5l3.2,5.2
		c2.8,4.4,6.3,8.4,10.6,11.5c4.1,3,8.8,5.3,14.1,6.8c4.1,1.1,8.2,1.6,12.2,1.4c3.5-0.1,6.9-0.7,10.2-1.6l31.4-31.4L230.6,185
		l-0.7-1.6c0.6-6.3,0.4-12.5-0.8-20.5c-1.8-11.9-7.7-25.9-15.9-36.5c-10.6-13.7-25.7-24.1-43.8-29c-2.3-0.6-4.5-1.1-6.5-1.5
		c-2.2-0.4-4.4-0.7-6.6-0.9c-2.3-0.2-4.5-0.4-6.6-0.4l-0.7,0l0,0c-3.6,9.8-10,17.8-18.1,23.3c-8.2,5.6-18,8.7-28.2,8.6
		c-4.6-0.1-15.6-2-25.9-4.4c-9.5-2.2-18.8-4.8-22.6-6.9c-9.9-5.2-17.5-13.7-21.8-23.6c-4.2-9.7-5.3-20.9-2.4-32
		c2.3-8.7,6.8-16.1,12.7-22c6.1-6,13.8-10.4,22.2-12.5l0.6-0.2L194.4,2.5L208.9,0l-5.2,13.8c-6.2,16.6-16.3,30.9-29.2,41.8
		c-12.8,10.8-28.4,18.3-45.8,21.5l-0.1,0l-50.9,9L74.8,69.5L74.8,69.5z M152.9,178.6c-5.5-4.1-12.4-7.5-20.8-10.2
		c-0.5,1.1-1,2.2-1.3,3.4l0,0.1c-1.3,4.8-0.5,9.7,1.8,13.7c2.3,4,6.1,7.1,11,8.4l0.1,0c4.3,1.1,8.6,0.7,12.3-1
		c2.4-1.1,4.6-2.8,6.3-4.8C159.7,184.6,156.6,181.4,152.9,178.6L152.9,178.6z"/>
</g>
</svg>
